# xmcd
#
# Track frame offsets:
#	150
#	12537
#	25285
#	37566
#	49682
#	63322
#	75272
#	87158
#	96031
#	107101
#	118409
#	133135
#	148738
#	161531
#	172517
#	184143
#
# Disc length: 2641 seconds
#
# Revision: 1
# Processed by: cddbd v1.5.1PL0 Copyright (c) Steve Scherf et al.
# Submitted via: EasyCDDAExtractor 7.0.5.4
#
DISCID=c60a4f10
DTITLE=Bill Monroe - The Gospel Spirit
DYEAR=2004
DGENRE=bluegrass
TTITLE0=I'm Working on the Building
TTITLE1=I'll Meet you in Church Sunday Mornin
TTITLE2=Lord Protect My Soul
TTITLE3=Angels Rock Me To Sleep
TTITLE4=Get Down on Your Knees and Pray
TTITLE5=He Will Set Your Fields on Fire
TTITLE6=A Voice from On High
TTITLE7=Let the Light Shine Down On Me
TTITLE8=Lord Lead Me On
TTITLE9=I Saw the Light
TTITLE10=Precious Memories
TTITLE11=I've Found a Hiding Place
TTITLE12=Life's Railway to Heaven
TTITLE13=Jesus Hold My Hand
TTITLE14=I Am a Pilgrim
TTITLE15=Wayfaring Stranger
EXTD=
EXTT0=
EXTT1=
EXTT2=
EXTT3=
EXTT4=
EXTT5=
EXTT6=
EXTT7=
EXTT8=
EXTT9=
EXTT10=
EXTT11=
EXTT12=
EXTT13=
EXTT14=
EXTT15=
PLAYORDER=
